<svg width="41.184021" height="52.127930" viewBox="0 0 41.184 52.1279" fill="none" xmlns="http://www.w3.org/2000/svg" xmlns:xlink="http://www.w3.org/1999/xlink">
	<desc>
			Created with Pixso.
	</desc>
	<defs/>
	<path id="О" d="M0 26.064C0 17.6641 1.776 11.2319 5.328 6.76807C8.88 2.25586 13.944 0 20.52 0C24.072 0 27.144 0.624023 29.736 1.87207C32.328 3.12012 34.464 4.896 36.144 7.2002C37.872 9.45605 39.144 12.1919 39.96 15.4082C40.776 18.5762 41.184 22.1279 41.184 26.064C41.184 34.4639 39.384 40.9199 35.784 45.4321C32.232 49.896 27.144 52.1279 20.52 52.1279C17.016 52.1279 13.968 51.5039 11.376 50.2559C8.83203 49.0078 6.69598 47.2559 4.96802 45C3.28802 42.6958 2.03998 39.96 1.224 36.792C0.40802 33.5762 0 30 0 26.064ZM6.336 26.064C6.336 28.8481 6.59998 31.4878 7.12799 33.9839C7.70398 36.48 8.56799 38.688 9.71997 40.6079C10.872 42.48 12.336 43.9922 14.112 45.144C15.936 46.248 18.072 46.7998 20.52 46.7998C24.984 46.7998 28.488 45.1201 31.032 41.7598C33.576 38.3521 34.848 33.1201 34.848 26.064C34.848 23.3281 34.56 20.7119 33.984 18.2158C33.456 15.6719 32.592 13.4639 31.392 11.5918C30.24 9.67188 28.752 8.16016 26.928 7.05615C25.152 5.90381 23.016 5.32812 20.52 5.32812C16.104 5.32812 12.624 7.03223 10.08 10.4399C7.58398 13.7998 6.336 19.0078 6.336 26.064Z" fill="#FE5B00" fill-opacity="1.000000" fill-rule="nonzero"/>
</svg>
