<svg width="46.559669" height="62.644531" viewBox="0 0 46.5597 62.6445" fill="none" xmlns="http://www.w3.org/2000/svg" xmlns:xlink="http://www.w3.org/1999/xlink">
	<desc>
			Created with Pixso.
	</desc>
	<defs/>
	<path id="Vector" d="M34.5399 19.7627L45.5399 27.7627L45.0399 40.7627L23.5399 61.2627L2.03989 40.7627L1.03989 27.7627L12.0399 19.7627L23.5399 26.2627L34.5399 19.7627Z" stroke="#151716" stroke-opacity="1.000000" stroke-width="2.000000"/>
	<path id="Vector" d="M23.0399 7.7627L20.5399 12.7627L15.0399 13.7627L11.5399 10.2627L11.0399 1.2627L20.0399 3.2627L23.0399 7.7627Z" fill="#CACACA" fill-opacity="1.000000" fill-rule="nonzero"/>
	<path id="Vector" d="M23.0399 7.7627L20.0399 3.2627L11.0399 1.2627L11.5399 10.2627L15.0399 13.7627L20.5399 12.7627L23.0399 7.7627Z" stroke="#151716" stroke-opacity="1.000000" stroke-width="2.000000"/>
	<path id="Vector" d="M25.0399 11.2627L26.8316 15.8828L32.0399 16.2627L34.5399 13.2627L35.5399 7.2627L28.0399 7.7627L25.0399 11.2627Z" fill="#CACACA" fill-opacity="1.000000" fill-rule="nonzero"/>
	<path id="Vector" d="M25.0399 11.2627L28.0399 7.7627L35.5399 7.2627L34.5399 13.2627L32.0399 16.2627L26.8316 15.8828L25.0399 11.2627Z" stroke="#151716" stroke-opacity="1.000000" stroke-width="1.600000"/>
	<path id="Vector" d="M23.5399 26.7627L24.5399 17.2627L31.0399 11.7627" stroke="#151716" stroke-opacity="1.000000" stroke-width="1.000000" stroke-linecap="round"/>
	<path id="Vector 2" d="M23.5399 25.7627L22.5399 15.7627L16.5399 8.7627" stroke="#151716" stroke-opacity="1.000000" stroke-width="1.000000" stroke-linecap="round"/>
</svg>
