<svg width="38.000000" height="38.000000" viewBox="0 0 38 38" fill="none" xmlns="http://www.w3.org/2000/svg" xmlns:xlink="http://www.w3.org/1999/xlink">
	<desc>
			Created with Pixso.
	</desc>
	<defs/>
	<path id="Vector" d="M11.5786 1.1084C9.66284 1.1958 8.35425 1.5 7.20923 1.94482C6.02563 2.40479 5.02173 3.02051 4.021 4.021C3.02051 5.02197 2.40503 6.02588 1.94507 7.20947C1.5 8.35449 1.1958 9.6626 1.1084 11.5786C1.02075 13.4985 1 14.1113 1 19C1 23.8887 1.02075 24.5015 1.1084 26.4214C1.1958 28.3374 1.5 29.646 1.94507 30.7905C2.40503 31.9741 3.02051 32.978 4.021 33.979C5.02173 34.9795 6.02563 35.5952 7.20923 36.0552C8.35425 36.5 9.66284 36.8042 11.5786 36.8916C13.4985 36.9795 14.1116 37 19 37C23.8884 37 24.5015 36.9795 26.4214 36.8916C28.3372 36.8042 29.6458 36.5 30.7908 36.0552C31.9744 35.5952 32.9783 34.9795 33.979 33.979C34.9795 32.978 35.595 31.9741 36.0552 30.7905C36.5 29.646 36.8042 28.3374 36.8916 26.4214C36.9792 24.5015 37 23.8887 37 19C37 14.1113 36.9792 13.4985 36.8916 11.5786C36.8042 9.6626 36.5 8.35449 36.0552 7.20947C35.595 6.02588 34.9795 5.02197 33.979 4.021C32.9783 3.02051 31.9744 2.40479 30.7908 1.94482C29.6458 1.5 28.3372 1.1958 26.4214 1.1084C24.5015 1.02051 23.8884 1 19 1C14.1116 1 13.4985 1.02051 11.5786 1.1084Z" stroke="#FE5B00" stroke-opacity="1.000000" stroke-width="2.000000"/>
	<path id="Vector" d="M19.0083 26.9937C14.5901 26.9937 11.0083 23.4121 11.0083 18.9937C11.0083 14.5752 14.5901 10.9937 19.0083 10.9937C23.4265 10.9937 27.0083 14.5752 27.0083 18.9937C27.0083 23.4121 23.4265 26.9937 19.0083 26.9937Z" stroke="#FE5B00" stroke-opacity="1.000000" stroke-width="2.000000"/>
	<path id="Vector" d="M29.5078 10.9941C30.8884 10.9941 32.0078 9.875 32.0078 8.49414C32.0078 7.11328 30.8884 5.99414 29.5078 5.99414C28.1272 5.99414 27.0078 7.11328 27.0078 8.49414C27.0078 9.875 28.1272 10.9941 29.5078 10.9941Z" fill="#333333" fill-opacity="1.000000" fill-rule="nonzero"/>
	<path id="Vector" d="M32.0078 8.49414C32.0078 9.875 30.8884 10.9941 29.5078 10.9941C28.1272 10.9941 27.0078 9.875 27.0078 8.49414C27.0078 7.11328 28.1272 5.99414 29.5078 5.99414C30.8884 5.99414 32.0078 7.11328 32.0078 8.49414ZM29.6997 8.95752Q29.6113 8.99414 29.5078 8.99414Q29.4043 8.99414 29.3159 8.95752Q29.2275 8.9209 29.1543 8.84766Q29.0811 8.77441 29.0444 8.68604Q29.0078 8.59766 29.0078 8.49414Q29.0078 8.39062 29.0444 8.30225Q29.0811 8.21387 29.1543 8.14062Q29.2275 8.06738 29.3159 8.03076Q29.4043 7.99414 29.5078 7.99414Q29.6113 7.99414 29.6997 8.03076Q29.7881 8.06738 29.8613 8.14062Q29.9346 8.21387 29.9712 8.30225Q30.0078 8.39062 30.0078 8.49414Q30.0078 8.59766 29.9712 8.68604Q29.9346 8.77441 29.8613 8.84766Q29.7881 8.9209 29.6997 8.95752Z" fill="#FE5B00" fill-opacity="1.000000" fill-rule="evenodd"/>
</svg>
