<svg width="10.000000" height="17.500000" viewBox="0 0 10 17.5" fill="none" xmlns="http://www.w3.org/2000/svg" xmlns:xlink="http://www.w3.org/1999/xlink">
	<desc>
			Created with Pixso.
	</desc>
	<defs/>
	<path id="Vector" d="M8.75 0L1.25 0C0.559387 0 0 0.559326 0 1.25L0 16.25C0 16.9407 0.559387 17.5 1.25 17.5L8.75 17.5C9.44061 17.5 10 16.9407 10 16.25L10 1.25C10 0.559326 9.44061 0 8.75 0ZM5 16.25C4.655 16.25 4.375 15.97 4.375 15.625C4.375 15.28 4.655 15 5 15C5.345 15 5.625 15.28 5.625 15.625C5.625 15.97 5.345 16.25 5 16.25ZM8.75 14.375L1.25 14.375L1.25 1.875L8.75 1.875L8.75 14.375Z" fill="#999999" fill-opacity="1.000000" fill-rule="nonzero"/>
</svg>
