<svg width="12.000000" height="17.500000" viewBox="0 0 12 17.5" fill="none" xmlns="http://www.w3.org/2000/svg" xmlns:xlink="http://www.w3.org/1999/xlink">
	<desc>
			Created with Pixso.
	</desc>
	<defs/>
	<path id="Vector" d="M10.75 0L1.25 0C0.559326 0 0 0.55957 0 1.25L0 16.25C0 16.9404 0.559326 17.5 1.25 17.5L10.75 17.5C11.4407 17.5 12 16.9404 12 16.25L12 1.25C12 0.55957 11.4407 0 10.75 0ZM6 16.25C5.65503 16.25 5.375 15.9702 5.375 15.625C5.375 15.2798 5.65503 15 6 15C6.34497 15 6.625 15.2798 6.625 15.625C6.625 15.9702 6.34497 16.25 6 16.25ZM10.75 14.375L1.25 14.375L1.25 1.875L10.75 1.875L10.75 14.375Z" fill="#F5702C" fill-opacity="1.000000" fill-rule="nonzero"/>
</svg>
