<svg width="50.079178" height="47.877930" viewBox="0 0 50.0792 47.8779" fill="none" xmlns="http://www.w3.org/2000/svg" xmlns:xlink="http://www.w3.org/1999/xlink">
	<desc>
			Created with Pixso.
	</desc>
	<defs/>
	<path id="Rectangle 2" d="M42.5783 8.21924L47.5783 8.21924C48.5783 8.21924 49.0783 8.71924 49.0783 9.71924L49.0783 40.2192L49.0783 43.6494M18.4507 40.2192L6.57831 40.2192C5.57831 40.2192 5.07831 39.7192 5.07831 38.7192L5.07831 27.1255M5.07831 18.2192L5.07831 9.71924C5.07831 8.71924 5.57831 8.21924 6.57831 8.21924L35.0783 8.21924M6.8712 16.4263C7.26173 16.0356 7.89489 16.0356 8.28542 16.4263L11.0783 19.2192L15.1721 23.3999L19.4012 27.7192L23.5056 31.9111L27.2919 35.8149L31.0783 39.7192L25.278 45.5195C24.8904 45.9072 24.263 45.9106 23.8713 45.5269L18.4507 40.2192L5.07831 27.1255L1.30038 23.4263C0.902824 23.0371 0.89946 22.3979 1.2929 22.0049L5.07831 18.2192L6.8712 16.4263ZM38.0783 21.7192L26.5783 21.7192L28.5783 15.2192L35.0783 8.21924L41.4175 1.42725C41.7859 1.03271 42.4009 1.00146 42.8071 1.35693L45.3257 3.56055C45.7414 3.92432 45.7835 4.55615 45.4198 4.97168L42.5783 8.21924L32.5783 19.2192L26.5783 21.7192M32.5783 19.2192L28.5783 15.2192M11.0783 19.2192L7.67206 22.7192M15.1721 23.3999L11.5783 26.7192M19.4012 27.7192L16.0783 30.7192M23.5056 31.9111L20.5783 34.7192M27.2919 35.8149L24.5783 38.7192" stroke="#151716" stroke-opacity="1.000000" stroke-width="2.000000"/>
	<path id="Vector 2" d="M41.5783 21.7192L44.0783 21.7192" stroke="#151716" stroke-opacity="1.000000" stroke-width="2.000000" stroke-linecap="round"/>
	<path id="Path 4" d="M46.3459 46.8779C50.1177 46.8779 49.8605 40.2095 46.3459 40.2095L41.2632 40.2095L41.2632 46.8779L46.3459 46.8779Z" fill="#CACACA" fill-opacity="1.000000" fill-rule="nonzero"/>
	<path id="Path 4" d="M30.5783 40.2095C34.5219 40.2095 38.6263 40.2095 41.2632 40.2095C42.8299 40.2095 45.2405 40.2095 46.3459 40.2095C49.8605 40.2095 50.1177 46.8779 46.3459 46.8779L41.2632 46.8779L41.2632 40.2095" stroke="#151716" stroke-opacity="1.000000" stroke-width="2.000000"/>
</svg>
